<?xml version="1.0" encoding="UTF-8" standalone="no"?>
<!DOCTYPE svg PUBLIC "-//W3C//DTD SVG 1.1//EN" "http://www.w3.org/Graphics/SVG/1.1/DTD/svg11.dtd">
<svg width="100%" height="100%" viewBox="0 0 233 233" version="1.1" xmlns="http://www.w3.org/2000/svg" xmlns:xlink="http://www.w3.org/1999/xlink" xml:space="preserve" xmlns:serif="http://www.serif.com/" style="fill-rule:evenodd;clip-rule:evenodd;stroke-linejoin:round;stroke-miterlimit:2;">
    <g transform="matrix(1,0,0,1,-182.736373,-651.039635)">
        <g id="ArtBoard1" transform="matrix(1,0,0,1,291.251702,132.640443)">
            <rect x="-291.252" y="-132.64" width="1657.838" height="1039.175" style="fill:none;"/>
            <g transform="matrix(0.190931,0,0,0.190931,-221.677242,376.771856)">
                <path d="M809.23,1296.452L809.351,1298.182C811.366,1329.206 807.18,1353.624 811.928,1387.627C825.246,1483.023 873.548,1573.081 945.077,1636.883C1021.376,1705.165 1121.578,1740.506 1223.831,1735.198C1310.366,1730.204 1361.821,1704.824 1432.51,1657.683C1515.171,1593.01 1570.302,1509.159 1589.179,1404.86C1608.573,1300.027 1584.932,1191.804 1523.592,1104.607C1463.073,1019.012 1371.117,960.872 1267.849,942.903C1165.917,926.241 1061.525,950.288 977.162,1009.865C901.022,1063.604 853.039,1135.273 823.391,1224.118C816.749,1244.024 812.913,1274.867 809.23,1296.452ZM1058.761,1473.656C1074.073,1472.066 1099.274,1472.75 1115.678,1472.712L1213.485,1472.423L1301.534,1472.202C1316.878,1472.173 1377.647,1465.461 1372.401,1493.751C1370.956,1501.523 1364.159,1504.884 1357.682,1508.563C1350.171,1509.844 1344.39,1509.654 1336.861,1509.695L1153.421,1509.916C1123.969,1509.932 1092.9,1510.926 1063.669,1508.976C1042.281,1507.548 1042.713,1486.176 1058.761,1473.656ZM1059.527,1561.123C1112.691,1561.191 1165.867,1560.583 1219.025,1560.966C1227.046,1561.024 1243.209,1561.248 1246.528,1570.405C1251.702,1584.685 1245.689,1590.309 1234.324,1596.52C1181.149,1596.941 1110.022,1598.511 1057.949,1596.006C1041.589,1582.755 1040.224,1571.889 1059.527,1561.123ZM1058.238,1382.301C1081.524,1380.626 1108.129,1381.437 1131.631,1381.559C1205.684,1382.14 1279.999,1380.454 1354.007,1382.151C1375.47,1382.643 1375.488,1403.793 1360.287,1417.041C1356.272,1417.783 1352.508,1418.336 1348.404,1418.334C1285.512,1418.414 1222.622,1418.327 1159.731,1418.325C1140.004,1418.325 1120.267,1418.314 1100.545,1418.254C1087.961,1418.215 1075.431,1418.589 1062.892,1417.483C1058.636,1417.108 1054.438,1414.612 1051.592,1411.536C1048.335,1408.011 1047.257,1403.315 1047.929,1398.658C1049.223,1389.996 1051.935,1387.127 1058.238,1382.301ZM1060.788,1289.843C1156.943,1286.644 1258.107,1291.179 1354.56,1290.332C1368.066,1290.212 1379.502,1313.924 1357.789,1325.726C1259.695,1327.243 1160.07,1325.657 1061.96,1325.022C1043.546,1324.902 1039.858,1301.003 1060.788,1289.843ZM950.558,1589.788C948.908,1584.316 949.07,1582.261 948.972,1576.635C947.695,1470.651 947.488,1364.659 948.351,1258.672L948.13,1168.628C948.162,1133.747 943.789,1086.519 992.283,1079.69C1024.08,1075.212 1061.687,1077.512 1094.156,1077.526L1294.754,1077.705C1350.599,1127.944 1409.459,1191.576 1465.232,1243.943L1465.375,1463.003C1465.357,1501.336 1466.517,1543.624 1465.161,1581.645C1456.079,1593.194 1441.092,1606.251 1429.656,1615.455C1431.368,1498.868 1431.85,1365.514 1429.816,1248.987C1397.844,1248.463 1365.532,1250.081 1333.542,1249.134C1309.277,1248.416 1299.554,1241.881 1285.851,1223.247C1283.621,1193.762 1285.387,1150.471 1284.959,1119.007C1283.353,1118.887 1281.765,1118.794 1280.16,1118.73C1193.882,1115.843 1101.642,1118.345 1014.913,1118.527C1004.92,1118.548 988.793,1132.941 987.747,1143.318C983.828,1182.238 987.271,1221.977 985.995,1261.428C987.096,1298.388 986.761,1337.236 986.276,1374.263C985.187,1457.274 991.032,1542.786 987.405,1625.55C978.225,1616.219 956.908,1597.451 950.558,1589.788Z" style="fill:url(#_Linear1);"/>
            </g>
            <g transform="matrix(0.190931,0,0,0.190931,-221.677242,376.771856)">
                <rect x="592.684" y="741.771" width="1219.506" height="1219.506" style="fill:url(#_Linear2);"/>
            </g>
            <g transform="matrix(0.768951,0,0,0.768951,-482.284565,502.784766)">
                <g transform="matrix(0.443012,0,0,0.443012,200.5898,-10.736969)">
                    <path d="M711.031,380.488C716.573,306.597 751.232,237.93 807.389,189.586C864.822,141.227 939.177,117.784 1013.96,124.455C1167.46,137.593 1273.49,275.966 1259.5,425.59C1255.56,467.727 1235.89,530.334 1209.38,563.876C1203.71,576.692 1183.63,596.655 1174.93,608.042L1174.81,608.132C1167.39,614.226 1159.69,620.765 1152.19,626.68C1147.56,624.368 1115.87,588.059 1115.13,583.426C1161.46,547.178 1192.36,500.181 1202.94,441.723C1213.81,382.966 1200.56,322.309 1166.18,273.436C1132.26,225.462 1080.72,192.875 1022.84,182.804C965.709,173.465 907.199,186.943 859.915,220.335C817.24,250.455 790.346,290.624 773.729,340.42C770.006,351.577 767.856,368.864 765.792,380.962C764.193,385.438 764.136,396.278 763.912,401.612C748.371,401.729 726.521,402.41 711.343,401.298C711.379,395.6 711.65,385.925 711.031,380.488Z" style="fill:white;"/>
                </g>
                <g transform="matrix(0.443012,0,0,0.443012,200.5898,-10.736969)">
                    <path d="M845.004,545.372C844.079,542.305 844.17,541.153 844.115,538C843.399,478.598 843.283,419.191 843.767,359.787L843.643,309.319C843.661,289.769 841.21,263.298 868.39,259.471C886.212,256.961 907.29,258.25 925.488,258.258L1037.92,258.358C1069.22,286.516 1102.21,322.181 1133.47,351.532L1133.55,474.311C1133.54,495.796 1134.19,519.498 1133.43,540.808C1128.34,547.281 1119.94,554.599 1113.53,559.758C1114.49,494.413 1114.76,419.67 1113.62,354.359C1095.7,354.065 1077.59,354.972 1059.66,354.441C1046.06,354.039 1040.61,350.376 1032.93,339.932C1031.68,323.406 1032.67,299.142 1032.43,281.507C1031.53,281.44 1030.64,281.388 1029.74,281.352C981.383,279.734 929.684,281.136 881.074,281.238C875.473,281.25 866.434,289.317 865.848,295.133C863.651,316.947 865.581,339.22 864.866,361.332C865.483,382.047 865.295,403.821 865.023,424.574C864.413,471.1 867.689,519.028 865.656,565.416C860.511,560.186 848.563,549.667 845.004,545.372Z" style="fill:white;"/>
                </g>
                <g transform="matrix(0.443012,0,0,0.443012,200.5898,-10.736969)">
                    <path d="M905.65,480.282C914.232,479.391 928.357,479.774 937.551,479.753L992.37,479.591L1041.72,479.467C1050.32,479.451 1084.38,475.689 1081.44,491.545C1080.63,495.901 1076.82,497.785 1073.19,499.847C1068.98,500.565 1065.74,500.458 1061.52,500.481L958.705,500.605C942.198,500.614 924.784,501.171 908.401,500.078C896.413,499.278 896.655,487.299 905.65,480.282Z" style="fill:white;"/>
                </g>
                <g transform="matrix(0.443012,0,0,0.443012,200.5898,-10.736969)">
                    <path d="M905.357,429.079C918.408,428.14 933.32,428.595 946.492,428.663C987.998,428.989 1029.65,428.044 1071.13,428.995C1083.16,429.271 1083.17,441.125 1074.65,448.55C1072.4,448.966 1070.29,449.276 1067.99,449.275C1032.74,449.32 997.491,449.271 962.242,449.27C951.185,449.27 940.123,449.264 929.069,449.23C922.016,449.208 914.993,449.418 907.965,448.798C905.58,448.588 903.227,447.189 901.632,445.465C899.806,443.489 899.202,440.857 899.579,438.247C900.304,433.392 901.824,431.784 905.357,429.079Z" style="fill:white;"/>
                </g>
                <g transform="matrix(0.443012,0,0,0.443012,200.5898,-10.736969)">
                    <path d="M906.786,377.258C960.679,375.465 1017.38,378.007 1071.44,377.532C1079.01,377.465 1085.42,390.755 1073.25,397.37C1018.27,398.22 962.432,397.331 907.443,396.975C897.122,396.908 895.055,383.513 906.786,377.258Z" style="fill:white;"/>
                </g>
                <g transform="matrix(0.443012,0,0,0.443012,200.5898,-10.736969)">
                    <path d="M906.079,529.306C935.877,529.344 965.681,529.003 995.475,529.218C999.971,529.25 1009.03,529.376 1010.89,534.508C1013.79,542.512 1010.42,545.664 1004.05,549.145C974.246,549.381 934.381,550.261 905.195,548.857C896.025,541.43 895.26,535.34 906.079,529.306Z" style="fill:white;"/>
                </g>
                <g transform="matrix(0.443012,0,0,0.443012,200.5898,-10.736969)">
                    <path d="M1152.19,626.68C1143.36,637.504 1094.57,662.289 1080.12,667.707C1009.191,694.303 939.679,689.583 871.252,659.493C826.553,689.28 783.84,700.173 730.033,700.871C764.129,673.576 780.168,643.938 790.479,602.839C779.356,588.292 770.089,578.686 759.135,562.791C728.462,519.068 711.364,467.271 709.98,413.88C709.674,404.27 709.317,389.845 711.031,380.488C711.65,385.925 711.379,395.6 711.343,401.298C726.521,402.41 748.371,401.729 763.912,401.612C764.136,396.278 764.193,385.438 765.792,380.962L765.86,381.932C766.989,399.32 764.643,413.006 767.304,432.064C774.769,485.532 801.841,536.008 841.932,571.768C884.696,610.039 940.858,629.847 998.169,626.872C1046.67,624.073 1075.51,609.848 1115.13,583.426C1115.87,588.059 1147.56,624.368 1152.19,626.68Z" style="fill:white;"/>
                </g>
                <g transform="matrix(0.443012,0,0,0.443012,200.5898,-10.736969)">
                    <path d="M1209.38,563.876C1214.39,570.321 1227.64,582.947 1233.88,589.228C1224.61,598.162 1204.31,618.727 1196.32,628.274C1191.75,623.478 1180.37,610.898 1174.81,608.132L1174.93,608.042C1183.63,596.655 1203.71,576.692 1209.38,563.876Z" style="fill:white;"/>
                </g>
                <g transform="matrix(0.443012,0,0,0.443012,200.5898,-10.736969)">
                    <path d="M1297.456,753.585C1268.128,724.065 1238.566,694.781 1209.39,665.127C1200.45,656.046 1199.27,647.941 1206.11,637.113C1210.62,629.982 1218.39,624.213 1224.14,618.023C1233.67,608.977 1242.87,593.987 1256.18,591.329C1262.41,591.427 1268.56,591.368 1273.08,595.713C1280.81,603.13 1288.27,610.982 1295.86,618.519L1327.934,649.989L1327.934,753.585L1297.456,753.585Z" style="fill:white;"/>
                </g>
            </g>
        </g>
    </g>
    <defs>
        <linearGradient id="_Linear1" x1="0" y1="0" x2="1" y2="0" gradientUnits="userSpaceOnUse" gradientTransform="matrix(1586.289023,-1589.860884,1589.860884,1586.289023,592.683622,1961.276502)"><stop offset="0" style="stop-color:rgb(37,99,235);stop-opacity:1"/><stop offset="1" style="stop-color:rgb(0,52,167);stop-opacity:1"/></linearGradient>
        <linearGradient id="_Linear2" x1="0" y1="0" x2="1" y2="0" gradientUnits="userSpaceOnUse" gradientTransform="matrix(1586.289023,-1589.860884,1589.860884,1586.289023,592.683622,1961.276502)"><stop offset="0" style="stop-color:rgb(37,99,235);stop-opacity:1"/><stop offset="1" style="stop-color:rgb(0,52,167);stop-opacity:1"/></linearGradient>
    </defs>
</svg>
