<svg width="479" height="276" viewBox="0 0 479 276" fill="none" xmlns="http://www.w3.org/2000/svg">
<g clip-path="url(#clip0_579_387)">
<path d="M139.26 74.1097C140.858 52.8145 150.846 33.0248 167.031 19.0921C183.583 5.15514 205.012 -1.60108 226.564 0.321488C270.802 4.10783 301.36 43.9867 297.328 87.108C296.193 99.2518 290.524 117.295 282.884 126.962C284.328 128.819 288.146 132.458 289.944 134.268C287.273 136.843 281.422 142.77 279.12 145.521C277.803 144.139 274.523 140.513 272.921 139.716C270.782 141.473 268.563 143.357 266.402 145.062C263.857 148.181 249.796 155.324 245.631 156.886C225.189 164.55 205.156 163.19 185.436 154.518C172.554 163.103 160.244 166.242 144.737 166.443C154.563 158.577 159.186 150.035 162.157 138.191C158.952 133.998 156.281 131.23 153.124 126.649C144.284 114.048 139.356 99.1204 138.958 83.7332C138.869 80.9636 138.766 76.8064 139.26 74.1097ZM255.721 132.596C269.073 122.149 277.978 108.605 281.028 91.7575C284.16 74.8238 280.342 57.3426 270.433 43.2575C260.658 29.4315 245.804 20.04 229.123 17.1376C212.658 14.4461 195.796 18.3304 182.169 27.9539C169.87 36.6344 162.119 48.2111 157.33 62.5622C156.257 65.7776 155.637 70.7597 155.042 74.2463L155.062 74.5258C155.387 79.537 154.711 83.4813 155.478 88.9738C157.629 104.383 165.432 118.93 176.986 129.236C189.31 140.266 205.496 145.974 222.013 145.117C235.991 144.31 244.303 140.211 255.721 132.596Z" fill="white"/>
<path d="M177.872 121.629C177.605 120.745 177.631 120.413 177.615 119.505C177.409 102.385 177.376 85.2641 177.515 68.144L177.479 53.5992C177.485 47.9649 176.778 40.3361 184.611 39.2331C189.748 38.5097 195.822 38.8812 201.067 38.8835L233.47 38.9124C242.49 47.0274 251.998 57.306 261.007 65.7649L261.03 101.15C261.027 107.342 261.214 114.172 260.995 120.314C259.528 122.179 257.108 124.288 255.26 125.775C255.537 106.943 255.615 85.4021 255.286 66.5797C250.122 66.4949 244.902 66.7563 239.735 66.6033C235.815 66.4874 234.245 65.4318 232.031 62.4218C231.671 57.6591 231.957 50.6662 231.887 45.5838C231.628 45.5645 231.371 45.5495 231.112 45.5392C217.176 45.0729 202.276 45.4769 188.267 45.5063C186.653 45.5098 184.048 47.8347 183.879 49.5108C183.246 55.7976 183.802 62.2166 183.596 68.5893C183.774 74.5593 183.719 80.8345 183.641 86.8155C183.465 100.224 184.409 114.037 183.823 127.406C182.341 125.899 178.897 122.867 177.872 121.629Z" fill="white"/>
<path d="M195.349 102.87C197.822 102.613 201.893 102.723 204.543 102.717L220.342 102.671L234.564 102.635C237.043 102.63 246.859 101.546 246.011 106.116C245.778 107.371 244.68 107.914 243.634 108.508C242.421 108.715 241.487 108.685 240.271 108.691L210.64 108.727C205.882 108.73 200.864 108.89 196.142 108.575C192.687 108.344 192.757 104.892 195.349 102.87Z" fill="white"/>
<path d="M195.264 88.1136C199.026 87.843 203.323 87.9742 207.119 87.9937C219.081 88.0877 231.085 87.8154 243.04 88.0894C246.507 88.169 246.51 91.5853 244.054 93.7251C243.406 93.845 242.798 93.9344 242.135 93.9341C231.976 93.9471 221.817 93.9329 211.659 93.9326C208.472 93.9326 205.284 93.9309 202.098 93.9211C200.065 93.9148 198.041 93.9753 196.016 93.7966C195.329 93.7361 194.651 93.3329 194.191 92.8361C193.665 92.2666 193.491 91.508 193.599 90.7558C193.808 89.3566 194.246 88.8932 195.264 88.1136Z" fill="white"/>
<path d="M195.677 73.1787C211.208 72.662 227.549 73.3946 243.129 73.2577C245.311 73.2384 247.158 77.0686 243.651 78.975C227.806 79.22 211.714 78.9637 195.866 78.8611C192.891 78.8418 192.296 74.9814 195.677 73.1787Z" fill="white"/>
<path d="M195.473 116.999C204.061 117.01 212.65 116.911 221.237 116.973C222.533 116.983 225.144 117.019 225.68 118.498C226.515 120.805 225.544 121.713 223.708 122.716C215.119 122.784 203.63 123.038 195.218 122.633C192.576 120.493 192.355 118.738 195.473 116.999Z" fill="white"/>
<path d="M154.501 80.1978C154.565 78.6605 154.582 75.5364 155.042 74.2465L155.062 74.526C155.387 79.5372 154.711 83.4815 155.478 88.974C157.629 104.383 165.432 118.93 176.986 129.236C189.31 140.266 205.496 145.975 222.013 145.117C235.991 144.311 244.303 140.211 255.721 132.596C255.934 133.931 265.067 144.396 266.402 145.062C263.857 148.181 249.796 155.324 245.631 156.886C225.189 164.55 205.156 163.19 185.436 154.519C172.554 163.103 160.244 166.242 144.737 166.444C154.563 158.577 159.186 150.036 162.157 138.191C158.952 133.999 156.281 131.23 153.124 126.649C144.284 114.048 139.356 99.1205 138.958 83.7334C138.869 80.9638 138.766 76.8065 139.26 74.1099C139.439 75.6768 139.361 78.4651 139.35 80.1073C143.725 80.4277 150.022 80.2315 154.501 80.1978Z" fill="white"/>
<path d="M272.921 139.716C272.932 139.708 272.944 139.699 272.955 139.69C275.463 136.409 281.25 130.655 282.884 126.962C284.328 128.819 288.146 132.458 289.945 134.268C287.273 136.843 281.423 142.77 279.12 145.521C277.803 144.139 274.523 140.514 272.921 139.716Z" fill="white"/>
<path d="M296.372 134.874C298.167 134.902 299.94 134.885 301.242 136.137C303.47 138.275 305.62 140.537 307.807 142.71L319.05 153.741C323.14 157.786 327.192 161.868 331.206 165.988C333.46 168.299 336.074 170.809 337.95 173.389C341.218 178.157 338.771 184.64 335.301 188.553C331.754 192.553 328.99 193.431 323.872 193.8C320.422 193.175 318.75 192.278 316.309 189.783C305.248 178.488 293.971 167.408 282.887 156.142C280.31 153.525 279.97 151.189 281.942 148.068C283.241 146.013 285.481 144.351 287.138 142.567C289.884 139.96 292.536 135.64 296.372 134.874Z" fill="white"/>
<path d="M278.709 225.638L285.968 225.624C286.305 238.49 286.049 251.568 286.037 264.468C284.21 264.506 280.933 264.666 279.27 264.369C278.38 263.4 279.216 263.098 278.515 261.934C277.501 261.958 275.682 263.915 274.04 264.513C270.44 265.823 267.541 265.13 264.218 263.745C255.912 259.686 253.658 248.203 259.855 241.546C265.748 235.212 272.282 235.437 278.308 240.96C278.605 235.858 278.737 230.748 278.709 225.638ZM272.619 258.585C275.342 258.108 277.599 256.205 278.53 253.601C279.458 250.997 278.916 248.095 277.112 246.001C275.305 243.908 272.512 242.946 269.8 243.484C265.673 244.302 262.97 248.291 263.742 252.428C264.515 256.566 268.475 259.311 272.619 258.585Z" fill="white"/>
<path d="M398.919 237.498C416.897 236.118 419.404 261.152 403.458 265.105C399.098 266.186 395.691 264.124 392.233 261.762L392.293 267.816L392.296 275.394L385.175 275.401C384.823 263.564 385.209 250.155 385.158 238.072L392.273 238.071L392.077 241.344C394.74 239.222 395.628 238.241 398.919 237.498ZM399.723 258.941C409.798 257.621 408.663 244.144 399.605 243.523C394.7 244.664 391.273 247.991 392.553 253.338C392.994 255.258 394.201 256.914 395.896 257.919C397.04 258.6 398.409 258.866 399.723 258.941Z" fill="white"/>
<path d="M40.6749 236.049C45.9474 235.055 51.3474 236.972 54.8136 241.068C58.2794 245.163 59.2769 250.806 57.4249 255.841C55.5727 260.877 51.1572 264.529 45.8633 265.403C37.8061 266.733 30.1787 261.333 28.7573 253.291C27.3359 245.249 32.6497 237.561 40.6749 236.049ZM44.9483 258.403C49.1012 257.629 51.8555 253.654 51.1215 249.494C50.3877 245.333 46.44 242.541 42.2726 243.234C38.0476 243.937 35.2074 247.951 35.9513 252.17C36.6954 256.388 40.7377 259.188 44.9483 258.403Z" fill="white"/>
<path d="M339.873 238.107L346.668 238.008C346.807 238.816 347.049 239.625 347.297 240.407C348.931 245.524 350.135 250.781 351.709 255.908C353.415 250.84 356.095 243.285 356.922 238.257C359.15 238.144 362.038 238.228 364.315 238.231C366.202 244.505 368.058 250.101 369.782 256.55C371.425 250.366 373.203 244.219 375.113 238.112L382.589 238.126C381.86 240.518 381.174 242.728 380.318 245.077C378.756 251.094 375.419 257.553 374.162 264.466C371.531 264.554 368.655 264.473 366.006 264.449C364.211 258.342 362.663 253.338 360.456 247.359C359.069 253.002 357.121 258.644 355.706 264.42C352.977 264.482 350.588 264.526 347.864 264.396C345.74 256.753 341.887 246.547 339.553 238.762C339.68 238.505 339.786 238.287 339.873 238.107Z" fill="white"/>
<path d="M124.541 236.043C135.924 235.458 140.06 242.751 140.245 252.997C133.52 253.141 126.075 252.983 119.301 252.964C121.756 259.811 128.305 261.283 133.185 255.756L135.776 257.334L139.381 258.892C131.465 268.535 116.373 267.601 112.148 254.903C110.425 249.724 112.728 241.922 117.339 238.917C119.869 237.269 121.592 236.741 124.541 236.043ZM127.081 247.801L132.663 247.801C130.882 243.32 129.626 242.102 124.642 242.361C121.955 243.508 120.148 244.742 119.491 247.79L127.081 247.801Z" fill="white"/>
<path d="M302.407 236.928C302.649 236.916 302.894 236.908 303.139 236.904C306.935 236.841 310.849 237.783 313.535 240.579C317.394 244.593 317.639 248.186 317.627 253.271C313.932 253.355 300.07 252.894 297.635 253.389C297.485 253.722 297.416 253.723 297.427 254.103C297.551 258.606 304.935 259.898 308.214 258.489C308.73 258.268 310.163 256.553 310.644 255.994C311.71 256.053 311.811 256.363 312.846 257.049C313.546 257.566 315.417 258.436 316.273 258.863L316.059 259.188C311.653 265.885 302.327 267.029 295.914 262.696C292.856 260.625 290.753 257.417 290.072 253.786C288.381 244.976 293.9 238.455 302.407 236.928ZM296.883 248.252L305.569 248.314C306.854 248.319 309.526 248.549 310.437 248.023C310.918 247.218 310.828 247.586 310.751 246.625C309.068 243.914 305.361 242.365 302.2 242.999C299.073 244.404 298.528 245.155 296.883 248.252Z" fill="white"/>
<path d="M157.867 236.072C158.173 236.056 158.478 236.045 158.784 236.039C166.611 235.891 170.134 240.111 170.232 247.692C170.304 253.294 170.263 258.897 170.245 264.5L162.538 264.471C162.5 259.203 163.274 250.466 162.133 245.624C159.61 242.832 157.89 242.332 154.287 243.49C149.2 246.51 150.815 251.12 150.646 256.272C150.558 258.936 150.683 261.705 150.684 264.385L143.303 264.409C143.283 255.22 143.206 246.032 143.073 236.845C144.351 236.822 149.688 236.512 150.485 237.139C150.572 237.94 150.549 238.103 150.901 238.806C151.789 238.77 154.167 237.094 155.223 236.742C156.203 236.416 156.848 236.276 157.867 236.072Z" fill="white"/>
<path d="M75.0976 236.367C80.9501 235.376 87.6633 237.87 88.4573 244.072C89.2421 250.202 88.755 258.1 88.798 264.359C86.3711 264.409 83.7407 264.343 81.2971 264.33C81.1535 258.864 81.5651 253.173 81.1305 247.757C80.7979 243.616 77.0421 242.354 73.4644 243.021C69.3657 245.338 69.3296 247.881 69.34 252.354C69.3495 256.356 69.4213 260.374 69.4746 264.376C67.0676 264.46 64.5643 264.403 62.1475 264.379C62.0558 255.153 62.206 246.188 61.9287 236.891C63.9859 236.834 66.7428 236.675 68.7166 236.944C69.4314 237.577 68.8682 237.799 69.2043 239.201C70.5735 239.206 72.4226 237.247 75.0976 236.367Z" fill="white"/>
<path d="M241.774 236.931C244.483 236.91 247.514 237.633 249.425 239.61C254.348 244.714 252.69 257.485 252.829 264.448L245.681 264.459C245.399 257.784 248.941 238.694 236.854 244.273C232.92 247.579 234.318 259.223 234.358 264.449L227.221 264.461L227.095 237.587L234.332 237.566L234.321 240.651C237.056 238.49 238.353 237.49 241.774 236.931Z" fill="white"/>
<path d="M13.7082 236.363C20.3719 236.191 23.7888 237.999 27.7276 243.175C26.1166 244.175 23.2366 245.524 21.4639 246.417C18.7638 243.871 15.9421 241.732 12.0041 243.305C10.5568 243.883 8.59099 246.254 8.11604 247.669C6.73153 251.794 8.67514 257.253 13.0658 258.609C16.8706 259.853 18.5064 257.222 21.2386 255.256C21.6541 254.957 22.3844 255.385 22.8006 255.549C24.1485 256.448 26.5019 257.473 26.9694 258.908C26.3621 261.869 20.748 264.565 18.0174 265.031C13.7376 265.76 9.75213 265.2 6.15974 262.691C2.97833 260.5 0.835864 257.098 0.233242 253.283C-1.27317 243.756 4.66774 237.722 13.7082 236.363Z" fill="white"/>
<path d="M183.771 227.643L184.417 227.837C184.943 229.105 184.645 235.241 184.606 236.852L191.229 236.868L191.204 243.283L184.739 243.337C184.755 246.693 183.477 254.329 185.512 257C186.622 258.457 189.534 258.073 191.318 257.963L191.155 264.547C189.627 264.759 187.897 264.75 186.342 264.784C174.21 264.567 177.235 252.173 177.248 243.372L172.286 243.372L172.269 236.779L177.194 236.82C177.24 234.547 177.182 232.09 177.173 229.802C179.358 229.149 181.6 228.368 183.771 227.643Z" fill="white"/>
<path d="M103.032 227.607L103.286 227.691C104.019 228.779 103.666 235.007 103.635 236.741L110.388 236.712L110.325 243.301L103.643 243.339C103.702 247.043 103.376 250.7 103.464 254.359C103.573 258.849 107.54 258.265 110.451 257.897C110.366 260.031 110.404 262.44 110.392 264.597C109.198 264.725 107.648 264.764 106.422 264.83C93.478 264.488 96.2277 253.043 96.2035 243.308L91.3457 243.318L91.3203 236.768L96.3747 236.811C96.3978 234.646 96.2724 232.178 96.2096 229.99C98.8867 229.215 100.497 228.732 103.032 227.607Z" fill="white"/>
<path d="M206.673 225.152C208.128 225.115 209.397 224.898 210.458 225.891C211.195 227.28 210.877 229.827 210.827 231.525C205.557 231.383 204.528 231.944 204.595 237.505L210.838 237.525L210.831 243.439C208.969 243.514 206.652 243.435 204.755 243.418C204.779 248.333 205.118 260.038 204.643 264.366C202.492 264.499 200.031 264.426 197.85 264.407L197.812 243.401L193.542 243.343L193.534 237.618L197.661 237.567C197.578 230.692 199.073 225.667 206.673 225.152Z" fill="white"/>
<path d="M336.573 236.879C336.743 236.934 337.097 237.214 337.265 237.334C337.538 239.208 337.429 242.201 337.414 244.183C325.515 245.162 328.564 254.731 328.613 264.349C326.253 264.329 323.93 264.87 321.898 264.116C321.146 263.23 321.394 263.304 321.359 261.842C321.538 253.817 321.007 245.736 321.27 237.675C323.299 237.564 326.172 237.651 328.267 237.649L328.305 241.909C331.06 239.009 332.607 237.654 336.573 236.879Z" fill="white"/>
<path d="M457.075 250.091C458.729 250.018 460.332 250.535 460.646 250.493C464.286 250.015 464.928 248.374 468.165 251.298C474.269 247.904 478.263 249.739 478.344 257.116C478.367 259.3 478.465 261.44 478.038 263.612C477.41 264.655 476.197 265.069 475.096 264.449C473.349 261.874 475.785 253.476 472.372 253.195C466.461 252.708 470.626 261.318 468.516 263.947C467.557 264.533 466.554 264.61 465.565 264.051C464.827 262.093 466.934 251.376 461.971 253.326C461.121 253.662 460.467 254.36 460.182 255.228C460.156 255.326 460.127 255.423 460.098 255.52C460.058 258.28 460.721 262.232 459.588 263.975C458.476 264.648 457.715 264.456 456.282 264.514C456.009 260.868 456.328 254.287 456.179 249.981L457.075 250.091Z" fill="white"/>
<path d="M214.701 237.513L221.842 237.553C221.945 243.928 221.938 257.01 221.812 263.942C221.68 264.112 221.549 264.283 221.417 264.453L214.723 264.443C214.651 261.192 214.024 238.904 214.701 237.513Z" fill="white"/>
<path d="M430.316 249.84C434.483 249.611 435.786 249.801 438.535 253.122C437.544 253.621 436.483 254.462 435.572 255.133C425.92 245.867 426.189 268.447 434.979 259.308C435.388 259.392 435.794 259.486 436.201 259.59C437.613 259.963 438.368 260.601 437.973 262.07C436.959 263.307 435.402 263.985 433.881 264.464C427.076 266.605 421.926 259.224 425.183 253.274C426.33 251.178 428.076 250.428 430.316 249.84Z" fill="white"/>
<path d="M440.155 261.114C439.302 259.557 438.858 258.281 438.968 256.458C439.097 254.562 439.988 252.8 441.435 251.568C444.729 248.731 450.302 248.986 453.121 252.364C453.075 253.762 453.291 253.701 452.622 254.695C451.674 255.048 450.833 254.729 449.847 254.424C445.844 251.04 442.746 254.47 443.118 259.257C443.118 260.185 443.207 260.542 442.694 261.307C441.904 261.733 441.253 261.535 440.328 261.421L440.155 261.114Z" fill="white"/>
<path d="M440.154 261.114C440.255 260.21 440.2 259.601 440.811 258.977C441.595 258.676 442.264 259.004 443.117 259.256C443.117 260.185 443.206 260.542 442.693 261.307C441.904 261.733 441.252 261.534 440.327 261.42L440.154 261.114Z" fill="white"/>
<path d="M217.014 225.213C219.372 224.594 221.796 225.953 222.497 228.288C223.199 230.622 221.925 233.093 219.616 233.876C218.05 234.407 216.317 234.041 215.1 232.921C213.882 231.8 213.372 230.105 213.771 228.499C214.17 226.893 215.413 225.633 217.014 225.213Z" fill="white"/>
<path d="M443.117 259.256C445.287 260.583 447.051 263.356 449.757 259.806C450.737 259.555 451.388 259.281 452.351 259.533C453.126 260.378 452.996 260.69 452.988 261.968C452.515 262.517 451.982 263.01 451.397 263.436C447.881 266.05 442.843 264.941 440.327 261.42C441.252 261.534 441.904 261.733 442.693 261.307C443.206 260.542 443.117 260.185 443.117 259.256Z" fill="white"/>
<path d="M453.12 252.364C453.993 253.682 454.123 254.092 454.636 255.605C454.544 256.653 454.457 258.119 454.302 259.123C453.953 259.939 453.431 261.251 452.988 261.968C452.996 260.691 453.126 260.378 452.351 259.533C451.388 259.282 450.737 259.555 449.757 259.806C450.907 257.733 450.987 256.505 449.846 254.425C450.832 254.729 451.673 255.049 452.622 254.695C453.29 253.701 453.074 253.762 453.12 252.364Z" fill="white"/>
<path d="M417.715 259.698C418.589 259.234 419.649 259.293 420.468 259.853C421.283 260.413 421.724 261.38 421.606 262.364C421.488 263.348 420.834 264.185 419.908 264.536C418.594 265.035 417.119 264.427 416.539 263.147C415.96 261.868 416.473 260.358 417.715 259.698Z" fill="white"/>
<path d="M454.636 255.605L455.287 255.432C455.8 253.908 455.068 252.27 455.532 250.312L456.178 249.981C456.328 254.287 456.008 260.868 456.282 264.514L455.821 264.561L455.466 264.216C455.261 262.814 455.792 258.746 455.184 258.098L454.302 259.123C454.457 258.119 454.544 256.653 454.636 255.605Z" fill="white"/>
</g>
<defs>
<clipPath id="clip0_579_387">
<rect width="479" height="276" fill="white"/>
</clipPath>
</defs>
</svg>
