<svg width="479" height="51" viewBox="0 0 479 51" fill="none" xmlns="http://www.w3.org/2000/svg">
<path d="M278.709 0.573603L285.968 0.560059C286.305 13.4258 286.049 26.5042 286.037 39.4043C284.21 39.4423 280.933 39.6025 279.27 39.3048C278.38 38.3356 279.216 38.0345 278.515 36.8696C277.501 36.8938 275.682 38.8515 274.04 39.4489C270.44 40.7591 267.541 40.066 264.218 38.6815C255.912 34.6219 253.658 23.1389 259.855 16.4816C265.748 10.1478 272.282 10.3726 278.308 15.8959C278.605 10.794 278.737 5.68393 278.709 0.573603ZM272.619 33.5213C275.342 33.0443 277.599 31.1408 278.53 28.5369C279.458 25.933 278.916 23.0306 277.112 20.9374C275.305 18.8439 272.512 17.8825 269.8 18.42C265.673 19.2382 262.97 23.2265 263.742 27.3642C264.515 31.5019 268.475 34.2475 272.619 33.5213Z" fill="#1E5BDF"/>
<path d="M398.919 12.4339C416.897 11.0532 419.404 36.0875 403.458 40.0407C399.098 41.122 395.691 39.0591 392.233 36.6973L392.293 42.7515L392.296 50.3297L385.175 50.3363C384.823 38.4994 385.209 25.0901 385.158 13.0071L392.273 13.0066L392.077 16.2793C394.74 14.1576 395.628 13.1763 398.919 12.4339ZM399.723 33.8764C409.798 32.5562 408.663 19.0798 399.605 18.4581C394.7 19.5991 391.273 22.9266 392.553 28.2733C392.994 30.1935 394.201 31.8492 395.896 32.8548C397.04 33.5355 398.409 33.8018 399.723 33.8764Z" fill="#002857"/>
<path d="M40.6749 10.9847C45.9474 9.99123 51.3474 11.908 54.8136 16.0036C58.2794 20.0995 59.2769 25.7418 57.4249 30.7775C55.5727 35.8132 51.1572 39.4649 45.8633 40.3391C37.8061 41.6694 30.1787 36.2686 28.7573 28.227C27.3359 20.1854 32.6497 12.4971 40.6749 10.9847ZM44.9483 33.3393C49.1012 32.5652 51.8555 28.5901 51.1215 24.43C50.3877 20.2695 46.44 17.4769 42.2726 18.17C38.0476 18.8726 35.2074 22.8875 35.9513 27.1056C36.6954 31.3237 40.7377 34.1244 44.9483 33.3393Z" fill="#002857"/>
<path d="M339.874 13.0435L346.669 12.9443C346.808 13.7524 347.05 14.5611 347.298 15.3433C348.932 20.4597 350.136 25.717 351.71 30.8443C353.416 25.7761 356.096 18.2212 356.923 13.1928C359.151 13.0804 362.039 13.1642 364.316 13.1665C366.203 19.4412 368.059 25.0371 369.783 31.4858C371.425 25.3023 373.204 19.155 375.114 13.0484L382.59 13.0616C381.861 15.4542 381.175 17.6639 380.319 20.0127C378.757 26.0297 375.42 32.4888 374.163 39.4018C371.532 39.49 368.656 39.409 366.007 39.3848C364.212 33.2776 362.664 28.2742 360.457 22.2946C359.07 27.9378 357.122 33.5805 355.707 39.3565C352.978 39.4179 350.589 39.4623 347.865 39.3317C345.741 31.689 341.888 21.4831 339.554 13.6977C339.681 13.4406 339.787 13.2227 339.874 13.0435Z" fill="#002857"/>
<path d="M124.541 10.979C135.924 10.3949 140.06 17.6877 140.245 27.9332C133.52 28.0778 126.075 27.9196 119.301 27.9006C121.756 34.7473 128.305 36.2197 133.185 30.6929L135.776 32.2702L139.381 33.8288C131.465 43.4711 116.373 42.5376 112.148 29.8399C110.425 24.6607 112.728 16.8583 117.339 13.8535C119.869 12.2056 121.592 11.6779 124.541 10.979ZM127.081 22.7378L132.663 22.7372C130.882 18.2569 129.626 17.0387 124.642 17.2975C121.955 18.4448 120.148 19.6786 119.491 22.7266L127.081 22.7378Z" fill="#002857"/>
<path d="M302.407 11.8637C302.649 11.8522 302.894 11.8444 303.139 11.8404C306.935 11.7767 310.849 12.7191 313.535 15.5149C317.394 19.5292 317.639 23.1216 317.627 28.2066C313.932 28.2907 300.07 27.8305 297.635 28.3253C297.485 28.6582 297.416 28.6588 297.427 29.0386C297.551 33.5423 304.935 34.8343 308.214 33.4253C308.73 33.2045 310.163 31.4889 310.644 30.9298C311.71 30.9891 311.811 31.2987 312.846 31.9849C313.546 32.5019 315.417 33.372 316.273 33.7991L316.059 34.1245C311.653 40.8207 302.327 41.9652 295.914 37.6324C292.856 35.5614 290.753 32.3529 290.072 28.7219C288.381 19.912 293.9 13.3909 302.407 11.8637ZM296.883 23.1885L305.569 23.2501C306.854 23.255 309.526 23.485 310.437 22.9594C310.918 22.1536 310.828 22.5222 310.751 21.561C309.068 18.8497 305.361 17.3006 302.2 17.9346C299.073 19.3402 298.528 20.0912 296.883 23.1885Z" fill="#1E5BDF"/>
<path d="M157.867 11.008C158.173 10.9925 158.478 10.9815 158.784 10.9755C166.611 10.827 170.134 15.0474 170.232 22.6279C170.304 28.2296 170.263 33.8333 170.245 39.4356L162.538 39.4068C162.5 34.1391 163.274 25.4018 162.133 20.5604C159.61 17.768 157.89 17.2683 154.287 18.4262C149.2 21.446 150.815 26.0557 150.646 31.2078C150.558 33.8716 150.683 36.6415 150.684 39.3206L143.303 39.3448C143.283 30.1565 143.206 20.9684 143.073 11.7813C144.351 11.7579 149.688 11.4475 150.485 12.0749C150.572 12.8756 150.549 13.0387 150.901 13.7419C151.789 13.7064 154.167 12.0297 155.223 11.6781C156.203 11.3518 156.848 11.2118 157.867 11.008Z" fill="#002857"/>
<path d="M75.0976 11.3024C80.9501 10.3116 87.6633 12.8057 88.4573 19.008C89.2421 25.138 88.755 33.0354 88.798 39.2948C86.3711 39.3441 83.7407 39.2787 81.2971 39.2651C81.1535 33.8 81.5651 28.1087 81.1305 22.6929C80.7979 18.5512 77.0421 17.2892 73.4644 17.9566C69.3657 20.2732 69.3296 22.8165 69.34 27.2891C69.3495 31.2916 69.4213 35.3093 69.4746 39.3118C67.0676 39.3951 64.5643 39.3383 62.1475 39.315C62.0558 30.088 62.206 21.1236 61.9287 11.8261C63.9859 11.7693 66.7428 11.6108 68.7166 11.8794C69.4314 12.5126 68.8682 12.7348 69.2043 14.1369C70.5735 14.1412 72.4226 12.1823 75.0976 11.3024Z" fill="#002857"/>
<path d="M241.774 11.8672C244.483 11.8458 247.514 12.5692 249.425 14.5465C254.348 19.6502 252.69 32.4211 252.829 39.3843L245.681 39.3953C245.399 32.7203 248.941 13.6303 236.854 19.209C232.92 22.5155 234.318 34.1593 234.358 39.3855L227.221 39.3973L227.095 12.5231L234.332 12.5023L234.321 15.5866C237.056 13.4263 238.353 12.426 241.774 11.8672Z" fill="#1E5BDF"/>
<path d="M13.7082 11.2986C20.3719 11.1274 23.7888 12.9353 27.7276 18.111C26.1166 19.1108 23.2366 20.4601 21.4639 21.353C18.7638 18.807 15.9421 16.6683 12.0041 18.2413C10.5568 18.8194 8.59099 21.1904 8.11604 22.6055C6.73153 26.7299 8.67514 32.1895 13.0658 33.5455C16.8706 34.7891 18.5064 32.1581 21.2386 30.1917C21.6541 29.8928 22.3844 30.3211 22.8006 30.4854C24.1485 31.3843 26.5019 32.4088 26.9694 33.844C26.3621 36.8053 20.748 39.5014 18.0174 39.9668C13.7376 40.6962 9.75213 40.1357 6.15974 37.6272C2.97833 35.4358 0.835864 32.0344 0.233242 28.2187C-1.27317 18.692 4.66774 12.6583 13.7082 11.2986Z" fill="#002857"/>
<path d="M183.771 2.5791L184.417 2.77307C184.943 4.04114 184.645 10.1769 184.606 11.7885L191.229 11.8038L191.204 18.2188L184.739 18.2726C184.755 21.6287 183.477 29.2654 185.512 31.9358C186.622 33.3932 189.534 33.0088 191.318 32.8993L191.155 39.4832C189.627 39.6953 187.897 39.6858 186.342 39.7201C174.21 39.5028 177.235 27.1091 177.248 18.3078L172.286 18.3081L172.269 11.7153L177.194 11.7565C177.24 9.48348 177.182 7.0263 177.173 4.73772C179.358 4.08524 181.6 3.30363 183.771 2.5791Z" fill="#002857"/>
<path d="M103.032 2.54297L103.286 2.62626C104.019 3.71449 103.666 9.94246 103.635 11.6765L110.388 11.6472L110.325 18.2365L103.643 18.2743C103.702 21.9785 103.376 25.6357 103.464 29.295C103.573 33.7845 107.54 33.2009 110.451 32.8329C110.366 34.9667 110.404 37.3757 110.392 39.5329C109.198 39.6606 107.648 39.6992 106.422 39.7658C93.478 39.424 96.2277 27.9788 96.2035 18.2431L91.3457 18.2532L91.3203 11.7036L96.3747 11.7463C96.3978 9.58106 96.2724 7.11352 96.2096 4.92523C98.8867 4.15026 100.497 3.66781 103.032 2.54297Z" fill="#002857"/>
<path d="M206.673 0.0878638C208.128 0.0512627 209.397 -0.166333 210.458 0.827374C211.195 2.21591 210.877 4.76302 210.827 6.46108C205.557 6.31928 204.528 6.88041 204.595 12.4412L210.838 12.4608L210.831 18.3752C208.969 18.4498 206.652 18.3708 204.755 18.3544C204.779 23.2688 205.118 34.9739 204.643 39.3021C202.492 39.4347 200.031 39.3618 197.85 39.3427L197.812 18.3368L193.542 18.2786L193.534 12.5539L197.661 12.5026C197.578 5.62846 199.073 0.603162 206.673 0.0878638Z" fill="#1E5BDF"/>
<path d="M336.573 11.8154C336.743 11.8708 337.097 12.1503 337.265 12.2702C337.538 14.1443 337.429 17.1379 337.414 19.1192C325.515 20.0985 328.564 29.6673 328.613 39.2856C326.253 39.2657 323.93 39.8066 321.898 39.053C321.146 38.1668 321.394 38.2406 321.359 36.7786C321.538 28.754 321.007 20.6723 321.27 12.6117C323.299 12.5008 326.172 12.5875 328.267 12.5852L328.305 16.8459C331.06 13.9455 332.607 12.5901 336.573 11.8154Z" fill="#1E5BDF"/>
<path d="M457.075 25.0268C458.729 24.9541 460.332 25.4706 460.646 25.4291C464.286 24.9507 464.928 23.31 468.165 26.2343C474.269 22.8396 478.263 24.6755 478.344 32.0516C478.367 34.2364 478.465 36.3763 478.038 38.5476C477.41 39.5909 476.197 40.0047 475.096 39.3851C473.349 36.81 475.785 28.4125 472.372 28.1312C466.461 27.6439 470.626 36.2538 468.516 38.8833C467.557 39.4695 466.554 39.5456 465.565 38.9871C464.827 37.0291 466.934 26.3116 461.971 28.2624C461.121 28.5984 460.467 29.2956 460.182 30.1645C460.156 30.2619 460.127 30.359 460.098 30.4564C460.058 33.2162 460.721 37.168 459.588 38.911C458.476 39.5842 457.715 39.3917 456.282 39.4502C456.009 35.8042 456.328 29.2235 456.179 24.917L457.075 25.0268Z" fill="#1E5BDF"/>
<path d="M214.701 12.4487L221.842 12.4891C221.945 18.864 221.938 31.9462 221.812 38.8779C221.68 39.0483 221.549 39.2186 221.417 39.3886L214.723 39.3791C214.651 36.1279 214.024 13.8402 214.701 12.4487Z" fill="#1E5BDF"/>
<path d="M430.316 24.776C434.483 24.5474 435.786 24.7374 438.535 28.058C437.544 28.5574 436.483 29.3978 435.572 30.0693C425.92 20.8032 426.189 43.3829 434.979 34.2444C435.388 34.328 435.794 34.422 436.201 34.5257C437.613 34.8995 438.368 35.5367 437.973 37.0062C436.959 38.2435 435.402 38.9213 433.881 39.4003C427.076 41.541 421.926 34.16 425.183 28.2104C426.33 26.1141 428.076 25.3639 430.316 24.776Z" fill="#1E5BDF"/>
<path d="M440.155 36.0504C439.302 34.4933 438.858 33.2166 438.968 31.3937C439.097 29.4983 439.988 27.7356 441.435 26.5042C444.729 23.6671 450.302 23.9216 453.121 27.3002C453.075 28.6982 453.291 28.6366 452.622 29.6311C451.674 29.9845 450.833 29.6654 449.847 29.3605C445.844 25.9762 442.746 29.4063 443.118 34.1927C443.118 35.1213 443.207 35.4784 442.694 36.243C441.904 36.6692 441.253 36.4706 440.328 36.3568L440.155 36.0504Z" fill="#1E5BDF"/>
<path d="M440.154 36.0501C440.255 35.1457 440.2 34.5368 440.811 33.9128C441.595 33.6117 442.264 33.9405 443.117 34.1924C443.117 35.121 443.206 35.478 442.693 36.2426C441.904 36.6689 441.252 36.4703 440.327 36.3565L440.154 36.0501Z" fill="#1E5BDF"/>
<path d="M217.014 0.148873C219.372 -0.470176 221.796 0.889249 222.497 3.22394C223.199 5.55835 221.925 8.02908 219.616 8.81182C218.05 9.34326 216.317 8.97695 215.1 7.85673C213.882 6.7365 213.372 5.04104 213.771 3.4352C214.17 1.82936 215.413 0.569354 217.014 0.148873Z" fill="#1E5BDF"/>
<path d="M443.117 34.1924C445.287 35.519 447.051 38.2917 449.757 34.742C450.737 34.491 451.388 34.2174 452.351 34.469C453.126 35.3137 452.996 35.6264 452.988 36.9037C452.515 37.4533 451.982 37.9462 451.397 38.3724C447.881 40.9861 442.843 39.8768 440.327 36.3565C441.252 36.4703 441.904 36.6689 442.693 36.2426C443.206 35.478 443.117 35.121 443.117 34.1924Z" fill="#1E5BDF"/>
<path d="M453.12 27.2998C453.993 28.6172 454.123 29.0275 454.636 30.5409C454.544 31.5888 454.457 33.0545 454.302 34.0583C453.953 34.8742 453.431 36.1861 452.988 36.9037C452.996 35.6264 453.126 35.3137 452.351 34.469C451.388 34.2174 450.737 34.4909 449.757 34.7419C450.907 32.6689 450.987 31.4403 449.846 29.3601C450.832 29.665 451.673 29.9841 452.622 29.6308C453.29 28.6362 453.074 28.6979 453.12 27.2998Z" fill="#1E5BDF"/>
<path d="M417.715 34.6345C418.589 34.1696 419.649 34.229 420.468 34.789C421.283 35.3489 421.724 36.3164 421.606 37.3C421.488 38.2839 420.834 39.1209 419.908 39.4725C418.594 39.9711 417.119 39.363 416.539 38.0834C415.96 36.8038 416.473 35.2936 417.715 34.6345Z" fill="#1E5BDF"/>
<path d="M454.636 30.5412L455.287 30.3685C455.8 28.8443 455.068 27.2058 455.532 25.2478L456.178 24.917C456.328 29.2235 456.008 35.8042 456.282 39.4502L455.821 39.4972L455.466 39.1519C455.261 37.7501 455.792 33.682 455.184 33.0341L454.302 34.0586C454.457 33.0548 454.544 31.5891 454.636 30.5412Z" fill="#1E5BDF" fill-opacity="0.03"/>
</svg>
