<svg width="201" height="194" viewBox="0 0 201 194" fill="none" xmlns="http://www.w3.org/2000/svg">
<path d="M0.376657 74.1097C1.97385 52.8145 11.9625 33.0248 28.1468 19.0921C44.6989 5.15514 66.1279 -1.60108 87.6802 0.321488C131.919 4.10783 162.476 43.9867 158.444 87.108C157.309 99.2518 151.64 117.295 144 126.962C145.444 128.819 149.262 132.458 151.061 134.268C148.389 136.843 142.539 142.77 140.236 145.521C138.919 144.139 135.639 140.513 134.037 139.716C131.898 141.473 129.679 143.357 127.518 145.062C124.973 148.181 110.912 155.324 106.747 156.886C86.3055 164.55 66.2726 163.19 46.552 154.518C33.6699 163.103 21.3601 166.242 5.853 166.443C15.6794 158.577 20.3018 150.035 23.2734 138.191C20.0678 133.998 17.3971 131.23 14.2401 126.649C5.40024 114.048 0.472619 99.1204 0.0737535 83.7332C-0.0144351 80.9636 -0.117314 76.8064 0.376657 74.1097ZM116.837 132.596C130.189 122.149 139.095 108.605 142.144 91.7575C145.277 74.8238 141.458 57.3426 131.55 43.2575C121.774 29.4315 106.92 20.04 90.2394 17.1376C73.7744 14.4461 56.9119 18.3304 43.2847 27.9539C30.9859 36.6344 23.2351 48.2111 18.4461 62.5622C17.3731 65.7776 16.7535 70.7597 16.1587 74.2463L16.1783 74.5258C16.5036 79.537 15.8275 83.4813 16.5944 88.9738C18.7455 104.383 26.5479 118.93 38.1021 129.236C50.4266 140.266 66.6123 145.974 83.1293 145.117C97.1071 144.31 105.419 140.211 116.837 132.596Z" fill="#1E5BDF"/>
<path d="M38.9878 121.629C38.7212 120.745 38.7474 120.413 38.7316 119.505C38.5252 102.385 38.4918 85.2641 38.6313 68.144L38.5955 53.5992C38.6007 47.9649 37.8943 40.3361 45.7276 39.2331C50.8638 38.5097 56.9385 38.8812 62.1831 38.8835L94.5858 38.9124C103.606 47.0274 113.114 57.306 122.123 65.7649L122.146 101.15C122.143 107.342 122.331 114.172 122.112 120.314C120.645 122.179 118.224 124.288 116.376 125.775C116.653 106.943 116.731 85.4021 116.402 66.5797C111.238 66.4949 106.019 66.7563 100.851 66.6033C96.9317 66.4874 95.361 65.4318 93.1477 62.4218C92.7874 57.6591 93.0727 50.6662 93.0036 45.5838C92.7442 45.5645 92.4877 45.5495 92.2283 45.5392C78.2919 45.0729 63.3924 45.4769 49.3831 45.5063C47.7689 45.5098 45.1639 47.8347 44.995 49.5108C44.3618 55.7976 44.918 62.2166 44.712 68.5893C44.8898 74.5593 44.8356 80.8345 44.7572 86.8155C44.5814 100.224 45.5255 114.037 44.9396 127.406C43.4568 125.899 40.0135 122.867 38.9878 121.629Z" fill="#1E5BDF"/>
<path d="M56.4654 102.87C58.9387 102.613 63.0095 102.723 65.6592 102.717L81.4579 102.671L95.6805 102.635C98.159 102.63 107.975 101.546 107.128 106.116C106.894 107.371 105.796 107.914 104.75 108.508C103.537 108.715 102.603 108.685 101.387 108.691L71.7557 108.727C66.9984 108.73 61.9798 108.89 57.2582 108.575C53.8033 108.344 53.873 104.892 56.4654 102.87Z" fill="#002857"/>
<path d="M56.3806 88.1136C60.1419 87.843 64.4395 87.9742 68.2356 87.9937C80.1976 88.0877 92.2016 87.8154 104.156 88.0894C107.623 88.169 107.626 91.5853 105.171 93.7251C104.522 93.845 103.914 93.9344 103.251 93.9341C93.0921 93.9471 82.9335 93.9329 72.7748 93.9326C69.5882 93.9326 66.4001 93.9309 63.2144 93.9211C61.1817 93.9148 59.1577 93.9753 57.1323 93.7966C56.4449 93.7361 55.7668 93.3329 55.3071 92.8361C54.7808 92.2666 54.6068 91.508 54.7154 90.7558C54.9244 89.3566 55.3624 88.8932 56.3806 88.1136Z" fill="#002857"/>
<path d="M56.7927 73.1787C72.3246 72.662 88.6657 73.3946 104.246 73.2577C106.427 73.2384 108.275 77.0686 104.767 78.975C88.9222 79.22 72.8298 78.9637 56.9821 78.8611C54.0076 78.8418 53.4119 74.9814 56.7927 73.1787Z" fill="#002857"/>
<path d="M56.5895 116.999C65.1772 117.01 73.7666 116.911 82.3532 116.973C83.6489 116.983 86.2597 117.019 86.7958 118.498C87.6316 120.805 86.6603 121.713 84.8245 122.716C76.235 122.784 64.746 123.038 56.3347 122.633C53.6919 120.493 53.4714 118.738 56.5895 116.999Z" fill="#0169E5"/>
<path d="M15.6168 80.1978C15.6814 78.6605 15.6978 75.5364 16.1587 74.2465L16.1783 74.526C16.5036 79.5372 15.8275 83.4815 16.5944 88.974C18.7455 104.383 26.5479 118.93 38.1021 129.236C50.4266 140.266 66.6123 145.975 83.1293 145.117C97.1071 144.311 105.419 140.211 116.837 132.596C117.05 133.931 126.183 144.396 127.518 145.062C124.973 148.181 110.912 155.324 106.747 156.886C86.3055 164.55 66.2726 163.19 46.552 154.519C33.6699 163.103 21.3601 166.242 5.853 166.444C15.6794 158.577 20.3018 150.036 23.2734 138.191C20.0678 133.999 17.3971 131.23 14.2401 126.649C5.40024 114.048 0.472619 99.1205 0.0737535 83.7334C-0.0144351 80.9638 -0.117314 76.8065 0.376657 74.1099C0.555051 75.6768 0.476953 78.4651 0.466578 80.1073C4.84085 80.4277 11.138 80.2315 15.6168 80.1978Z" fill="#002857"/>
<path d="M134.037 139.716C134.049 139.708 134.06 139.699 134.072 139.69C136.579 136.409 142.366 130.655 144 126.962C145.444 128.819 149.263 132.458 151.061 134.268C148.389 136.843 142.539 142.77 140.236 145.521C138.919 144.139 135.639 140.514 134.037 139.716Z" fill="#002857"/>
<path d="M157.488 134.874C159.283 134.902 161.056 134.885 162.358 136.137C164.586 138.275 166.736 140.537 168.924 142.71L180.166 153.741C184.256 157.786 188.308 161.868 192.322 165.988C194.576 168.299 197.19 170.809 199.066 173.389C202.334 178.157 199.888 184.64 196.418 188.553C192.87 192.553 190.106 193.431 184.988 193.8C181.538 193.175 179.866 192.278 177.425 189.783C166.364 178.488 155.087 167.408 144.003 156.142C141.427 153.525 141.087 151.189 143.058 148.068C144.358 146.013 146.597 144.351 148.254 142.567C151.001 139.96 153.652 135.64 157.488 134.874Z" fill="#002857"/>
</svg>
