<svg width="233" height="233" viewBox="0 0 233 233" fill="none" xmlns="http://www.w3.org/2000/svg">
<g clip-path="url(#clip0_576_214)">
<path fill-rule="evenodd" clip-rule="evenodd" d="M190.773 205.98C170.6 222.751 144.679 232.841 116.421 232.841C52.1664 232.841 0 180.674 0 116.42C0 52.1659 52.1664 -0.000488281 116.421 -0.000488281C180.675 -0.000488281 232.841 52.1659 232.841 116.42C232.841 142.826 224.031 167.19 209.192 186.732L201.567 178.93C199.477 176.766 197.422 174.511 195.294 172.38C194.049 171.133 192.355 171.15 190.639 171.121C186.973 171.885 184.44 176.19 181.815 178.788C180.231 180.565 178.091 182.222 176.849 184.27C174.966 187.38 175.291 189.707 177.753 192.315C182.071 196.892 186.42 201.438 190.773 205.98ZM161.999 181.274C159.567 184.382 146.13 191.5 142.15 193.056C122.616 200.694 103.471 199.339 84.626 190.697C72.3153 199.252 60.5517 202.38 45.7327 202.58C55.1231 194.742 59.5405 186.23 62.3802 174.427C59.3167 170.249 56.7646 167.491 53.7476 162.926C45.3001 150.369 40.5912 135.494 40.2099 120.161C40.1257 117.401 40.0273 113.258 40.4993 110.571C42.0256 89.3504 51.5712 69.6303 67.0374 55.7466C82.8551 41.8586 103.333 35.126 123.929 37.0418C166.205 40.815 195.406 80.5537 191.553 123.524C190.468 135.625 185.051 153.605 177.75 163.237C179.13 165.088 182.779 168.714 184.497 170.518C181.944 173.084 176.354 178.99 174.153 181.732C172.894 180.354 169.76 176.741 168.229 175.947C166.185 177.697 164.065 179.575 161.999 181.274Z" fill="url(#paint0_linear_576_214)"/>
<path fill-rule="evenodd" clip-rule="evenodd" d="M55.5811 110.707L55.5998 110.986C55.9108 115.979 55.2647 119.91 55.9975 125.383C58.0534 140.738 65.5093 155.234 76.5508 165.504C88.3284 176.495 103.796 182.183 119.58 181.329C132.938 180.525 140.881 176.44 151.792 168.852C164.552 158.442 173.062 144.945 175.976 128.157C178.97 111.283 175.321 93.8627 165.852 79.8271C156.51 66.0498 142.315 56.6911 126.375 53.7989C110.64 51.1168 94.526 54.9876 81.5036 64.5773C69.7504 73.2272 62.3435 84.7633 57.767 99.064C56.7415 102.268 56.1495 107.233 55.5811 110.707ZM94.0187 124.526C97.613 124.256 101.72 124.387 105.348 124.406C116.779 124.5 128.25 124.228 139.674 124.501C142.988 124.581 142.99 127.985 140.644 130.117C140.024 130.237 139.443 130.326 138.81 130.326C129.101 130.339 119.393 130.324 109.685 130.324C106.64 130.324 103.594 130.322 100.549 130.313C98.6068 130.306 96.6725 130.367 94.737 130.189C94.0802 130.128 93.432 129.727 92.9928 129.231C92.4899 128.664 92.3236 127.908 92.4273 127.159C92.627 125.764 93.0457 125.302 94.0187 124.526ZM94.2175 153.309C102.424 153.32 110.633 153.222 118.838 153.284C120.076 153.293 122.571 153.329 123.084 154.803C123.882 157.102 122.954 158.007 121.2 159.007C112.992 159.075 102.012 159.327 93.974 158.924C91.4486 156.791 91.2378 155.042 94.2175 153.309ZM77.3968 157.923C77.1421 157.042 77.1671 156.712 77.1521 155.806C76.9548 138.747 76.9229 121.686 77.0562 104.626L77.022 90.1322C77.027 84.5177 76.3519 76.9156 83.8375 75.8166C88.746 75.0957 94.551 75.4659 99.563 75.4682L130.528 75.4968C139.148 83.5835 148.234 93.826 156.843 102.255L156.865 137.516C156.863 143.686 157.042 150.493 156.832 156.613C155.431 158.471 153.117 160.573 151.352 162.055C151.616 143.289 151.69 121.823 151.376 103.067C146.441 102.983 141.453 103.243 136.515 103.091C132.77 102.975 131.269 101.923 129.154 98.9239C128.809 94.1777 129.082 87.2095 129.016 82.1451C128.768 82.1258 128.523 82.1109 128.275 82.1006C114.957 81.6358 100.719 82.0385 87.331 82.0677C85.7882 82.0712 83.2989 84.3879 83.1375 86.0582C82.5325 92.3228 83.064 98.7194 82.867 105.07C83.0369 111.019 82.9852 117.272 82.9103 123.232C82.7423 136.593 83.6445 150.358 83.0847 163.68C81.6676 162.178 78.3771 159.157 77.3968 157.923ZM94.0995 139.23C96.463 138.974 100.353 139.084 102.885 139.078L117.983 139.032L131.574 138.996C133.943 138.992 143.323 137.911 142.514 142.465C142.291 143.716 141.241 144.257 140.242 144.849C139.082 145.055 138.19 145.025 137.028 145.031L108.711 145.067C104.165 145.069 99.3692 145.229 94.8571 144.916C91.5555 144.686 91.6222 141.245 94.0995 139.23ZM94.4122 109.643C109.255 109.128 124.871 109.858 139.76 109.722C141.844 109.703 143.61 113.519 140.258 115.419C125.116 115.663 109.738 115.408 94.5932 115.306C91.7506 115.286 91.1815 111.44 94.4122 109.643Z" fill="url(#paint1_linear_576_214)"/>
<path fill-rule="evenodd" clip-rule="evenodd" d="M40.5 110.571C42.0263 89.3506 51.5718 69.6305 67.038 55.7467C82.8557 41.8587 103.334 35.1262 123.93 37.042C166.205 40.8151 195.407 80.5539 191.554 123.524C190.469 135.625 185.052 153.605 177.751 163.238C176.189 166.918 170.659 172.651 168.263 175.921L168.23 175.947C166.186 177.697 164.065 179.575 162 181.274C160.725 180.61 151.997 170.183 151.793 168.852C164.553 158.442 173.063 144.945 175.977 128.157C178.971 111.283 175.322 93.8629 165.853 79.8273C156.511 66.0498 142.316 56.6913 126.376 53.799C110.641 51.117 94.5267 54.9877 81.5042 64.5774C69.7511 73.2275 62.3442 84.7634 57.7677 99.0641C56.7423 102.268 56.1502 107.233 55.5818 110.707C55.1414 111.993 55.1257 115.106 55.064 116.638C50.7838 116.671 44.7661 116.867 40.5859 116.547C40.5958 114.911 40.6705 112.133 40.5 110.571Z" fill="white"/>
<path fill-rule="evenodd" clip-rule="evenodd" d="M77.3969 157.924C77.1422 157.043 77.1672 156.712 77.1521 155.807C76.9549 138.747 76.9229 121.686 77.0562 104.626L77.0221 90.1326C77.027 84.5182 76.352 76.9161 83.8377 75.817C88.746 75.0962 94.5511 75.4663 99.5631 75.4686L130.528 75.4974C139.148 83.5839 148.234 93.8264 156.844 102.256L156.866 137.516C156.863 143.686 157.042 150.493 156.833 156.613C155.431 158.472 153.117 160.574 151.352 162.055C151.616 143.289 151.691 121.824 151.377 103.067C146.441 102.983 141.454 103.244 136.515 103.091C132.77 102.976 131.269 101.924 129.154 98.9243C128.809 94.1782 129.082 87.2099 129.016 82.1454C128.768 82.1262 128.523 82.1112 128.275 82.1009C114.957 81.6362 100.719 82.0389 87.331 82.0682C85.7884 82.0716 83.299 84.3883 83.1376 86.0586C82.5325 92.3233 83.064 98.7198 82.8671 105.07C83.0371 111.019 82.9853 117.272 82.9104 123.232C82.7424 136.594 83.6446 150.358 83.0847 163.68C81.6677 162.178 78.3771 159.157 77.3969 157.924Z" fill="white"/>
<path fill-rule="evenodd" clip-rule="evenodd" d="M94.0998 139.23C96.4633 138.975 100.354 139.085 102.886 139.079L117.983 139.032L131.575 138.996C133.943 138.992 143.324 137.911 142.514 142.465C142.291 143.716 141.242 144.257 140.242 144.849C139.083 145.055 138.19 145.025 137.028 145.031L108.712 145.067C104.165 145.07 99.3695 145.229 94.8574 144.916C91.5558 144.686 91.6224 141.246 94.0998 139.23Z" fill="white"/>
<path fill-rule="evenodd" clip-rule="evenodd" d="M94.0192 124.526C97.6136 124.256 101.721 124.387 105.348 124.406C116.779 124.5 128.251 124.228 139.675 124.502C142.988 124.581 142.991 127.985 140.644 130.117C140.025 130.237 139.444 130.326 138.81 130.326C129.102 130.339 119.394 130.324 109.686 130.324C106.641 130.324 103.594 130.322 100.55 130.313C98.6073 130.306 96.6731 130.367 94.7375 130.189C94.0807 130.128 93.4326 129.727 92.9933 129.231C92.4904 128.664 92.3241 127.908 92.4279 127.159C92.6276 125.764 93.0462 125.302 94.0192 124.526Z" fill="white"/>
<path fill-rule="evenodd" clip-rule="evenodd" d="M94.4125 109.643C109.255 109.128 124.871 109.859 139.76 109.722C141.845 109.703 143.61 113.52 140.258 115.419C125.116 115.663 109.738 115.408 94.5934 115.306C91.7509 115.287 91.1816 111.44 94.4125 109.643Z" fill="white"/>
<path fill-rule="evenodd" clip-rule="evenodd" d="M94.2174 153.31C102.424 153.32 110.632 153.223 118.838 153.284C120.076 153.293 122.571 153.33 123.084 154.803C123.882 157.102 122.954 158.007 121.2 159.007C112.991 159.075 102.012 159.327 93.974 158.924C91.4485 156.791 91.2378 155.042 94.2174 153.31Z" fill="white"/>
<path fill-rule="evenodd" clip-rule="evenodd" d="M161.999 181.274C159.568 184.383 146.13 191.501 142.151 193.057C122.616 200.695 103.472 199.339 84.6262 190.698C72.3156 199.252 60.552 202.38 45.733 202.581C55.1234 194.742 59.5407 186.23 62.3804 174.427C59.317 170.25 56.7648 167.491 53.7479 162.926C45.3003 150.37 40.5913 135.494 40.2101 120.161C40.1259 117.401 40.0275 113.258 40.4996 110.571C40.6701 112.133 40.5954 114.911 40.5855 116.548C44.7657 116.867 50.7834 116.671 55.0636 116.638C55.1253 115.106 55.141 111.993 55.5814 110.707L55.6001 110.986C55.911 115.98 55.2649 119.91 55.9978 125.383C58.0537 140.738 65.5096 155.234 76.5511 165.504C88.3288 176.495 103.796 182.184 119.58 181.329C132.938 180.525 140.881 176.44 151.793 168.852C151.997 170.183 160.724 180.61 161.999 181.274Z" fill="white"/>
<path fill-rule="evenodd" clip-rule="evenodd" d="M177.75 163.238C179.13 165.089 182.779 168.715 184.498 170.519C181.945 173.084 176.354 178.99 174.154 181.732C172.895 180.355 169.761 176.742 168.229 175.948L168.263 175.922C170.659 172.651 176.189 166.918 177.75 163.238Z" fill="white"/>
<path fill-rule="evenodd" clip-rule="evenodd" d="M190.773 205.98C186.42 201.438 182.071 196.892 177.753 192.315C175.29 189.707 174.965 187.38 176.849 184.27C178.091 182.222 180.231 180.565 181.815 178.788C184.44 176.19 186.973 171.885 190.639 171.122C192.355 171.15 194.049 171.133 195.294 172.381C197.422 174.511 199.477 176.766 201.567 178.93L209.192 186.732C203.803 193.829 197.619 200.289 190.773 205.98Z" fill="white"/>
</g>
<defs>
<linearGradient id="paint0_linear_576_214" x1="-7.69165e-05" y1="232.841" x2="302.872" y2="-70.7128" gradientUnits="userSpaceOnUse">
<stop stop-color="#2563EB"/>
<stop offset="1" stop-color="#0034A7"/>
</linearGradient>
<linearGradient id="paint1_linear_576_214" x1="-0.000185707" y1="232.841" x2="302.872" y2="-70.7129" gradientUnits="userSpaceOnUse">
<stop stop-color="#2563EB"/>
<stop offset="1" stop-color="#0034A7"/>
</linearGradient>
<clipPath id="clip0_576_214">
<rect width="233" height="233" fill="white"/>
</clipPath>
</defs>
</svg>
